<?xml version="1.0" encoding="utf-8"?>
<!-- Generator: Adobe Illustrator 16.0.0, SVG Export Plug-In . SVG Version: 6.00 Build 0)  -->
<!DOCTYPE svg PUBLIC "-//W3C//DTD SVG 1.1//EN" "http://www.w3.org/Graphics/SVG/1.1/DTD/svg11.dtd">
<svg version="1.1" xmlns="http://www.w3.org/2000/svg" xmlns:xlink="http://www.w3.org/1999/xlink" x="0px" y="0px" width="220px"
	 height="60px" viewBox="0 0 220 60" enable-background="new 0 0 220 60" xml:space="preserve">
<g id="Layer_2">
	<rect x="-1" y="1" fill="#FFFFFF" width="220" height="60"/>
</g>
<g id="Layer_1">
	<rect x="-0.5" y="0.5" fill="none" stroke="#D2CECE" stroke-miterlimit="10" width="220" height="60"/>
	<g>
		<path d="M25.308,19.083l0.252,3.002c0.728-1.092,1.641-1.935,2.74-2.53c1.099-0.595,2.369-0.893,3.811-0.893
			c1.456,0,2.701,0.322,3.737,0.966c1.036,0.644,1.819,1.617,2.352,2.918c0.7-1.218,1.609-2.169,2.729-2.855
			c1.12-0.686,2.436-1.029,3.947-1.029c2.239,0,4.007,0.794,5.301,2.383c1.295,1.589,1.942,4.014,1.942,7.275v13.479h-6.131V28.3
			c0-1.819-0.28-3.086-0.84-3.8c-0.56-0.714-1.393-1.071-2.499-1.071c-0.868,0-1.62,0.192-2.257,0.578
			c-0.637,0.385-1.144,0.92-1.522,1.606c0,0.266,0.007,0.494,0.021,0.682c0.014,0.189,0.021,0.382,0.021,0.578v14.928h-6.11V28.3
			c0-1.777-0.28-3.034-0.84-3.769c-0.56-0.734-1.4-1.102-2.52-1.102c-0.826,0-1.55,0.158-2.173,0.472
			c-0.623,0.315-1.138,0.76-1.543,1.333v16.566h-6.11V19.083H25.308z"/>
		<path d="M65.012,32.269l0.252,1.26h0.126l4.346-14.445h6.593l-9.217,26.119c-0.644,1.624-1.519,2.992-2.625,4.104
			c-1.106,1.113-2.765,1.67-4.976,1.67c-0.518,0-0.997-0.043-1.438-0.127c-0.44-0.084-0.976-0.202-1.606-0.356l0.714-4.472
			c0.182,0.027,0.378,0.056,0.588,0.084c0.21,0.027,0.399,0.041,0.567,0.041c1.008,0,1.785-0.248,2.331-0.745
			s0.966-1.116,1.26-1.858l0.714-1.764l-8.063-22.696h6.593L65.012,32.269z"/>
		<path fill="#A31F1F" d="M88.359,42.242c-3.388,0-6.033-1.04-7.937-3.118c-1.904-2.079-2.855-4.756-2.855-8.031v-0.84
			c0-3.401,0.924-6.187,2.771-8.356c1.848-2.169,4.388-3.247,7.622-3.233c3.051,0,5.393,0.935,7.023,2.803
			c1.63,1.869,2.446,4.385,2.446,7.548v3.17H83.887l-0.063,0.126c0.098,1.554,0.57,2.813,1.417,3.779
			c0.847,0.966,2.103,1.449,3.769,1.449c1.372,0,2.537-0.141,3.496-0.42c0.958-0.28,1.949-0.707,2.971-1.281l1.659,3.779
			c-0.91,0.742-2.142,1.365-3.695,1.869S90.193,42.242,88.359,42.242z M87.96,23.387c-1.232,0-2.18,0.423-2.845,1.27
			c-0.665,0.847-1.068,1.971-1.208,3.37l0.042,0.105h7.475V27.67c0-1.33-0.273-2.376-0.819-3.139
			C90.06,23.769,89.178,23.387,87.96,23.387z"/>
		<path fill="#A31F1F" d="M107.844,37.098h11.254v4.703h-18.875v-3.611l10.813-14.361h-10.477v-4.745h18.183v3.506L107.844,37.098z"
			/>
		<path d="M143.453,31.072c0,3.359-0.777,6.061-2.33,8.104c-1.555,2.044-3.724,3.066-6.51,3.066c-1.189,0-2.246-0.221-3.17-0.662
			c-0.924-0.44-1.715-1.088-2.373-1.941v10.896h-6.109V19.083h5.521l0.357,2.688c0.672-0.994,1.48-1.76,2.425-2.299
			c0.945-0.539,2.048-0.809,3.308-0.809c2.813,0,4.996,1.099,6.551,3.296c1.553,2.198,2.33,5.088,2.33,8.671V31.072z
			 M137.322,30.631c0-2.142-0.357-3.877-1.07-5.207c-0.715-1.33-1.807-1.995-3.275-1.995c-0.924,0-1.712,0.189-2.362,0.567
			c-0.651,0.378-1.165,0.917-1.544,1.617v9.952c0.379,0.645,0.893,1.135,1.544,1.471c0.65,0.336,1.452,0.504,2.403,0.504
			c1.484,0,2.572-0.581,3.266-1.743c0.692-1.162,1.039-2.736,1.039-4.724V30.631z"/>
		<path d="M153.678,41.801h-6.131V9.047h6.131V41.801z"/>
		<path d="M172.112,41.801c-0.224-0.518-0.417-1.063-0.577-1.638c-0.161-0.574-0.276-1.162-0.347-1.764
			c-0.63,1.105-1.463,2.022-2.499,2.751c-1.035,0.728-2.268,1.092-3.695,1.092c-2.379,0-4.213-0.612-5.5-1.838
			c-1.288-1.225-1.932-2.894-1.932-5.008c0-2.225,0.856-3.95,2.571-5.175c1.715-1.225,4.217-1.837,7.507-1.837h3.443v-1.806
			c0-1.092-0.287-1.938-0.861-2.541c-0.574-0.602-1.428-0.903-2.562-0.903c-0.994,0-1.761,0.242-2.299,0.724
			c-0.539,0.483-0.809,1.145-0.809,1.984h-5.899l-0.043-0.126c-0.098-1.917,0.738-3.573,2.51-4.966
			c1.771-1.393,4.084-2.089,6.939-2.089c2.729,0,4.937,0.686,6.624,2.058c1.687,1.372,2.53,3.338,2.53,5.9v9.385
			c0,1.063,0.08,2.064,0.241,3.002c0.16,0.938,0.416,1.869,0.767,2.793H172.112z M166.506,37.707c1.064,0,2.016-0.267,2.855-0.799
			c0.84-0.531,1.414-1.147,1.723-1.848v-3.212h-3.443c-1.303,0-2.286,0.322-2.95,0.966c-0.665,0.644-0.997,1.435-0.997,2.373
			c0,0.77,0.248,1.382,0.745,1.837C164.935,37.479,165.625,37.707,166.506,37.707z"/>
		<path d="M187.418,19.083l0.273,3.254c0.756-1.162,1.687-2.064,2.793-2.708c1.105-0.644,2.344-0.966,3.716-0.966
			c2.296,0,4.087,0.738,5.375,2.215c1.288,1.477,1.932,3.811,1.932,7.002v13.92h-6.151V27.901c0-1.624-0.284-2.775-0.851-3.454
			c-0.567-0.679-1.417-1.018-2.552-1.018c-0.909,0-1.711,0.171-2.403,0.514c-0.693,0.343-1.264,0.816-1.712,1.417v16.44h-6.131
			V19.083H187.418z"/>
	</g>
</g>
</svg>
