<?xml version="1.0" encoding="UTF-8" standalone="no"?>
<svg
   xmlns:dc="http://purl.org/dc/elements/1.1/"
   xmlns:cc="http://creativecommons.org/ns#"
   xmlns:rdf="http://www.w3.org/1999/02/22-rdf-syntax-ns#"
   xmlns:svg="http://www.w3.org/2000/svg"
   xmlns="http://www.w3.org/2000/svg"
   id="svg2"
   xml:space="preserve"
   enable-background="new 0 0 121 35"
   viewBox="0 0 121 36"
   height="36"
   width="121"
   y="0px"
   x="0px"
   version="1.1"><metadata
     id="metadata32"><rdf:RDF><cc:Work
         rdf:about=""><dc:format>image/svg+xml</dc:format><dc:type
           rdf:resource="http://purl.org/dc/dcmitype/StillImage" /><dc:title></dc:title></cc:Work></rdf:RDF></metadata><defs
     id="defs30" /><g
     id="Layer_2"><rect
       style="fill:#ffffff"
       y="0"
       x="0"
       id="rect5"
       height="35"
       width="121" /></g><g
     id="Layer_1"><rect
       style="fill:none;stroke:#d2cece;stroke-miterlimit:10"
       id="rect8"
       height="35"
       width="120"
       stroke-miterlimit="10"
       y="0.5"
       x="0.5" /><g
       id="g10"><path
         id="path12"
         d="m 14.543,11.828 0.139,1.66 c 0.403,-0.604 0.907,-1.07 1.515,-1.398 0.607,-0.329 1.31,-0.494 2.106,-0.494 0.805,0 1.494,0.178 2.066,0.534 0.572,0.356 1.006,0.894 1.3,1.613 0.386,-0.672 0.889,-1.199 1.508,-1.579 0.619,-0.379 1.347,-0.568 2.182,-0.568 1.238,0 2.215,0.439 2.931,1.317 0.716,0.878 1.074,2.219 1.074,4.022 l 0,7.451 -3.389,0 0,-7.463 c 0,-1.006 -0.155,-1.707 -0.464,-2.101 -0.309,-0.394 -0.77,-0.592 -1.381,-0.592 -0.479,0 -0.895,0.106 -1.247,0.319 -0.353,0.212 -0.633,0.509 -0.842,0.888 0,0.146 0.003,0.272 0.011,0.376 0.008,0.104 0.012,0.211 0.012,0.32 l 0,8.252 -3.377,0 0,-7.463 c 0,-0.982 -0.155,-1.677 -0.464,-2.083 -0.31,-0.406 -0.774,-0.609 -1.393,-0.609 -0.457,0 -0.857,0.087 -1.201,0.261 -0.344,0.174 -0.629,0.421 -0.854,0.738 l 0,9.158 -3.377,0 0,-12.559 3.145,0 z" /><path
         id="path14"
         d="m 36.491,19.117 0.139,0.696 0.07,0 2.403,-7.985 3.644,0 -5.095,14.438 c -0.356,0.898 -0.84,1.654 -1.451,2.27 -0.611,0.615 -1.527,0.923 -2.75,0.923 -0.287,0 -0.551,-0.023 -0.795,-0.07 -0.243,-0.046 -0.54,-0.111 -0.888,-0.196 l 0.395,-2.473 c 0.1,0.015 0.208,0.031 0.325,0.047 0.116,0.015 0.221,0.022 0.314,0.022 0.557,0 0.986,-0.138 1.288,-0.412 0.301,-0.274 0.533,-0.616 0.696,-1.027 l 0.394,-0.975 -4.456,-12.547 3.644,0 2.123,7.289 z" /><path
         style="fill:#a31f1f"
         id="path16"
         d="m 49.398,24.631 c -1.873,0 -3.335,-0.575 -4.388,-1.724 -1.052,-1.149 -1.578,-2.629 -1.578,-4.439 l 0,-0.465 c 0,-1.88 0.511,-3.419 1.532,-4.62 1.021,-1.199 2.425,-1.795 4.213,-1.787 1.686,0 2.981,0.517 3.882,1.549 0.901,1.033 1.352,2.424 1.352,4.172 l 0,1.753 -7.487,0 -0.034,0.069 c 0.054,0.858 0.315,1.555 0.784,2.089 0.467,0.534 1.162,0.802 2.083,0.802 0.759,0 1.403,-0.078 1.933,-0.232 0.53,-0.155 1.078,-0.391 1.642,-0.708 l 0.917,2.089 c -0.503,0.41 -1.184,0.755 -2.042,1.033 -0.858,0.278 -1.795,0.419 -2.809,0.419 z m -0.22,-10.423 c -0.682,0 -1.206,0.234 -1.573,0.702 -0.367,0.468 -0.59,1.089 -0.667,1.863 l 0.023,0.058 4.132,0 0,-0.256 c 0,-0.735 -0.151,-1.313 -0.453,-1.735 -0.302,-0.422 -0.79,-0.632 -1.462,-0.632 z" /><path
         style="fill:#a31f1f"
         id="path18"
         d="m 60.169,21.786 6.221,0 0,2.601 -10.434,0 0,-1.997 5.977,-7.938 -5.791,0 0,-2.623 10.051,0 0,1.939 -6.024,8.018 z" /><path
         id="path20"
         d="m 79.854,18.456 c 0,1.857 -0.43,3.35 -1.288,4.479 -0.859,1.13 -2.058,1.695 -3.599,1.695 -0.657,0 -1.241,-0.122 -1.752,-0.366 -0.511,-0.243 -0.948,-0.602 -1.313,-1.073 l 0,6.023 -3.377,0 0,-17.386 3.053,0 0.197,1.486 c 0.371,-0.549 0.818,-0.974 1.341,-1.271 0.522,-0.298 1.132,-0.447 1.828,-0.447 1.555,0 2.762,0.607 3.621,1.822 0.858,1.215 1.288,2.813 1.288,4.794 l 0,0.244 z m -3.39,-0.244 c 0,-1.184 -0.197,-2.143 -0.591,-2.878 -0.396,-0.735 -0.999,-1.103 -1.811,-1.103 -0.511,0 -0.946,0.104 -1.306,0.313 -0.361,0.208 -0.645,0.507 -0.854,0.894 l 0,5.5 c 0.21,0.357 0.493,0.628 0.854,0.813 0.359,0.187 0.802,0.279 1.328,0.279 0.82,0 1.422,-0.321 1.806,-0.964 0.382,-0.643 0.573,-1.513 0.573,-2.611 l 0,-0.243 z" /><path
         id="path22"
         d="m 85.506,24.387 -3.39,0 0,-18.107 3.39,0 0,18.107 z" /><path
         id="path24"
         d="m 95.696,24.387 c -0.124,-0.286 -0.23,-0.588 -0.319,-0.905 -0.089,-0.318 -0.152,-0.643 -0.191,-0.975 -0.348,0.61 -0.809,1.117 -1.382,1.521 -0.571,0.402 -1.253,0.604 -2.042,0.604 -1.315,0 -2.329,-0.338 -3.041,-1.016 -0.712,-0.678 -1.067,-1.601 -1.067,-2.769 0,-1.23 0.474,-2.184 1.422,-2.861 0.947,-0.678 2.33,-1.015 4.149,-1.015 l 1.903,0 0,-0.999 c 0,-0.604 -0.159,-1.071 -0.477,-1.404 -0.317,-0.333 -0.789,-0.499 -1.415,-0.499 -0.55,0 -0.974,0.134 -1.271,0.4 -0.298,0.267 -0.446,0.633 -0.446,1.097 l -3.262,0 -0.024,-0.07 c -0.053,-1.06 0.408,-1.975 1.388,-2.745 0.98,-0.77 2.258,-1.155 3.837,-1.155 1.508,0 2.729,0.38 3.661,1.138 0.933,0.758 1.399,1.845 1.399,3.262 l 0,5.187 c 0,0.588 0.044,1.142 0.133,1.66 0.088,0.519 0.229,1.033 0.424,1.544 l -3.379,0 z m -3.098,-2.264 c 0.588,0 1.114,-0.146 1.577,-0.441 0.465,-0.293 0.782,-0.634 0.953,-1.021 l 0,-1.776 -1.903,0 c -0.721,0 -1.264,0.178 -1.632,0.534 -0.367,0.355 -0.55,0.793 -0.55,1.312 0,0.426 0.137,0.765 0.411,1.017 0.275,0.249 0.656,0.375 1.144,0.375 z" /><path
         id="path26"
         d="m 104.157,11.828 0.151,1.8 c 0.418,-0.643 0.933,-1.142 1.544,-1.498 0.61,-0.356 1.296,-0.534 2.055,-0.534 1.269,0 2.259,0.408 2.971,1.225 0.712,0.817 1.067,2.107 1.067,3.871 l 0,7.695 -3.399,0 0,-7.684 c 0,-0.898 -0.157,-1.534 -0.471,-1.909 -0.314,-0.375 -0.783,-0.563 -1.411,-0.563 -0.503,0 -0.945,0.095 -1.328,0.284 -0.383,0.19 -0.698,0.451 -0.946,0.784 l 0,9.087 -3.39,0 0,-12.558 3.157,0 z" /></g></g></svg>