<?xml version="1.0" encoding="UTF-8" standalone="no"?>
<svg
   xmlns:dc="http://purl.org/dc/elements/1.1/"
   xmlns:cc="http://creativecommons.org/ns#"
   xmlns:rdf="http://www.w3.org/1999/02/22-rdf-syntax-ns#"
   xmlns:svg="http://www.w3.org/2000/svg"
   xmlns="http://www.w3.org/2000/svg"
   version="1.1"
   id="svg2"
   viewBox="0 0 24.999999 34.645669"
   height="9.7777777mm"
   width="7.0555553mm">
  <defs
     id="defs4" />
  <metadata
     id="metadata7">
    <rdf:RDF>
      <cc:Work
         rdf:about="">
        <dc:format>image/svg+xml</dc:format>
        <dc:type
           rdf:resource="http://purl.org/dc/dcmitype/StillImage" />
        <dc:title></dc:title>
      </cc:Work>
    </rdf:RDF>
  </metadata>
  <g
     transform="translate(-249.40239,-475.32882)"
     id="layer1">
    <path
       id="path3401"
       d="m 261.90239,510.32882 -11.25,0 0,-13.125 0,-13.125 11.25,0 11.25,0 0,13.125 0,13.125 -11.25,0 z m -6.25,-3.75 1.25,0 0,-9.375 0,-9.375 -1.25,0 -1.25,0 0,9.375 0,9.375 1.25,0 z m 6.25,0 1.25,0 0,-9.375 0,-9.375 -1.25,0 -1.25,0 0,9.375 0,9.375 1.25,0 z m 6.25,0 1.25,0 0,-9.375 0,-9.375 -1.25,0 -1.25,0 0,9.375 0,9.375 1.25,0 z m -6.25,-23.75 -12.5,0 0,-1.25 0,-1.25 3.60421,0 3.60421,0 0.65377,-2.5 0.65376,-2.5 3.98405,0 3.98405,0 0.65376,2.5 0.65377,2.5 3.60421,0 3.60421,0 0,1.25 0,1.25 -12.5,0 z m 0,-2.5 2.5,0 0,-1.25 0,-1.25 -2.5,0 -2.5,0 0,1.25 0,1.25 2.5,0 z"
       style="fill:#c00000;fill-opacity:0.94117647" />
  </g>
</svg>
