<svg style="position: absolute; width: 0; height: 0;" width="0" height="0" version="1.1" xmlns="http://www.w3.org/2000/svg" xmlns:xlink="http://www.w3.org/1999/xlink">
	<defs>
		<symbol version="1.1" id="menu-bars" x="0px" y="0px"
		 width="25px" height="35px" viewBox="0 0 18 12" enable-background="new 0 0 18 12" xml:space="preserve">	
			<title>menu</title>		 
			<g id="Layer_x25_201">
				<rect width="18" height="2"/>
				<rect y="5" width="18" height="2"/>
				<rect y="10" width="18" height="2"/>
			</g>			
		</symbol>
		<symbol id="icon-edit" viewBox="0 0 1024 1024">
			<title>edit</title>
			<path class="path1" d="M341.792 582.624l-70.688 181.44 178.304-73.824-107.616-107.616zM859.36 195.104l-22.624-22.624c-24.96-24.992-65.504-24.992-90.496 0l-45.248 45.248 113.12 113.152 45.248-45.248c25.024-24.992 25.024-65.536 0-90.528zM345.376 573.376l16.192-16.192 113.12 113.12 316.8-316.8-113.12-113.12 22.624-22.656-355.616 355.648zM736.128 832.128l-544.832 0.192 0.096-544.832 381.472-0.128 59.776-63.36h-473.76c-17.664 0-32 14.304-32 32v608c0 17.696 14.336 32 32 32h608c17.696 0 32-14.304 32-32v-449.856l-64.48 63.264 1.728 354.72z"></path>
		</symbol>
		<symbol id="num-1" viewBox="0 0 119 119" x="0px" y="0px">
			<title>num-1</title>
			 <!-- Created with SVG-edit - http://svg-edit.googlecode.com/ -->
			 <defs>
				  <linearGradient y2="1" x2="1" y1="0" x1="0" id="svg_5">
				   <stop stop-color="#ffffff" offset="0"/>
				   <stop stop-color="#c1c1c1" offset="1"/>
				  </linearGradient>
			 </defs>
			 <g>
				  <title>Capa 1</title>
				  <circle id="svg_1" r="55" cy="57.5" cx="57.5" stroke-width="9" stroke="url(#svg_5)" fill="#17375e"/>
				  <text transform="matrix(4.833333492279053,0,0,3.9615386336005782,-935.3333721160889,-509.73080098496604) " xml:space="preserve" text-anchor="middle" font-family="Sans-serif" font-size="24" id="svg_2" y="151.81554" x="205.41056" stroke-width="0" stroke="#000000" fill="#ffffff">1</text>
			 </g>
		</symbol>
		<symbol id="num-2" viewBox="0 0 119 119" x="0px" y="0px">
			<title>num-2</title>
			 <!-- Created with SVG-edit - http://svg-edit.googlecode.com/ -->
			 <defs>
				  <linearGradient y2="1" x2="1" y1="0" x1="0" id="svg_5">
				   <stop stop-color="#ffffff" offset="0"/>
				   <stop stop-color="#c1c1c1" offset="1"/>
				  </linearGradient>
			 </defs>
			 <g>
				  <title>Capa 1</title>
				  <circle id="svg_1" r="55" cy="57.5" cx="57.5" stroke-width="9" stroke="url(#svg_5)" fill="#17375e"/>
				  <text transform="matrix(4.833333492279053,0,0,3.9615386336005782,-935.3333721160889,-509.73080098496604) " xml:space="preserve" text-anchor="middle" font-family="Sans-serif" font-size="24" id="svg_2" y="151.81554" x="205.41056" stroke-width="0" stroke="#000000" fill="#ffffff">2</text>
			 </g>
		</symbol>
		<symbol id="num-3" viewBox="0 0 119 119" x="0px" y="0px">
			<title>num-3</title>
			 <!-- Created with SVG-edit - http://svg-edit.googlecode.com/ -->
			 <defs>
				  <linearGradient y2="1" x2="1" y1="0" x1="0" id="svg_5">
				   <stop stop-color="#ffffff" offset="0"/>
				   <stop stop-color="#c1c1c1" offset="1"/>
				  </linearGradient>
			 </defs>
			 <g>
				  <title>Capa 1</title>
				  <circle id="svg_1" r="55" cy="57.5" cx="57.5" stroke-width="9" stroke="url(#svg_5)" fill="#17375e"/>
				  <text transform="matrix(4.833333492279053,0,0,3.9615386336005782,-935.3333721160889,-509.73080098496604) " xml:space="preserve" text-anchor="middle" font-family="Sans-serif" font-size="24" id="svg_2" y="151.81554" x="205.41056" stroke-width="0" stroke="#000000" fill="#ffffff">3</text>
			 </g>
		</symbol>
		<symbol id="help-1" viewBox="0 0 119 119" x="0px" y="0px">
			<title>help-1</title>
			 <!-- Created with SVG-edit - http://svg-edit.googlecode.com/ -->
			 <defs>
				  <linearGradient y2="1" x2="1" y1="0" x1="0" id="svg_5">
				   <stop stop-color="#ffffff" offset="0"/>
				   <stop stop-color="#c1c1c1" offset="1"/>
				  </linearGradient>
			 </defs>
			 <g>
				  <title>Capa 1</title>
				  <circle id="svg_1" r="55" cy="57.5" cx="57.5" stroke-width="9" stroke="url(#svg_5)" fill="#17375e"/>
				  <text transform="matrix(4.833333492279053,0,0,3.9615386336005782,-935.3333721160889,-509.73080098496604) " xml:space="preserve" text-anchor="middle" font-family="Sans-serif" font-size="24" id="svg_2" y="151.81554" x="205.41056" stroke-width="0" stroke="#000000" fill="#ffffff">?</text>
			 </g>
		</symbol>
		<symbol id="icon-close" viewBox="0 0 1024 1024">
			<title>close</title>
			<path class="path1" d="M810 274l-238 238 238 238-60 60-238-238-238 238-60-60 238-238-238-238 60-60 238 238 238-238z"></path>
		</symbol>
		<symbol id="icon-search" viewBox="0 0 1024 1024">
			<title>search</title>
			<path class="path1" d="M406 598q80 0 136-56t56-136-56-136-136-56-136 56-56 136 56 136 136 56zM662 598l212 212-64 64-212-212v-34l-12-12q-76 66-180 66-116 0-197-80t-81-196 81-197 197-81 196 81 80 197q0 104-66 180l12 12h34z"></path>
		</symbol>
		<symbol id="icon-keyboard_return" viewBox="0 0 1024 1024">
			<title>keyboard_return</title>
			<path class="path1" d="M810 298h86v256h-648l154 154-60 60-256-256 256-256 60 60-154 154h562v-172z"></path>
		</symbol>
		<symbol id="icon-save" viewBox="0 0 1024 1024">
			<title>save</title>
			<path class="path1" d="M640 384v-170h-426v170h426zM512 810q52 0 90-38t38-90-38-90-90-38-90 38-38 90 38 90 90 38zM726 128l170 170v512q0 34-26 60t-60 26h-596q-36 0-61-26t-25-60v-596q0-34 25-60t61-26h512z"></path>
		</symbol>
		<symbol id="icon-print" viewBox="0 0 1024 1024">
			<title>print</title>
			<path class="path1" d="M768 128v170h-512v-170h512zM810 512q18 0 31-12t13-30-13-31-31-13-30 13-12 31 12 30 30 12zM682 810v-212h-340v212h340zM810 342q52 0 90 38t38 90v256h-170v170h-512v-170h-170v-256q0-52 38-90t90-38h596z"></path>
		</symbol>
		<symbol id="icon-share" viewBox="0 0 1024 1024">
			<title>share</title>
			<path class="path1" d="M768 686q52 0 88 37t36 87q0 52-37 89t-87 37-87-37-37-89q0-20 2-28l-302-176q-38 34-88 34-52 0-90-38t-38-90 38-90 90-38q50 0 88 34l300-174q-4-20-4-30 0-52 38-90t90-38 90 38 38 90-38 90-90 38q-48 0-88-36l-300 176q4 20 4 30t-4 30l304 176q36-32 84-32z"></path>
		</symbol>
		<symbol id="icon-work" viewBox="0 0 1024 1024">
			<title>work</title>
			<path class="path1" d="M598 256v-86h-172v86h172zM854 256q36 0 60 25t24 61v468q0 36-24 61t-60 25h-684q-36 0-60-25t-24-61v-468q0-36 24-61t60-25h172v-86q0-36 24-60t60-24h172q36 0 60 24t24 60v86h172z"></path>
		</symbol>
		<symbol id="icon-settings" viewBox="0 0 1024 1024">
			<title>settings</title>
			<path class="path1" d="M512 662q62 0 106-44t44-106-44-106-106-44-106 44-44 106 44 106 106 44zM830 554l90 70q14 10 4 28l-86 148q-8 14-26 8l-106-42q-42 30-72 42l-16 112q-4 18-20 18h-172q-16 0-20-18l-16-112q-38-16-72-42l-106 42q-18 6-26-8l-86-148q-10-18 4-28l90-70q-2-14-2-42t2-42l-90-70q-14-10-4-28l86-148q8-14 26-8l106 42q42-30 72-42l16-112q4-18 20-18h172q16 0 20 18l16 112q38 16 72 42l106-42q18-6 26 8l86 148q10 18-4 28l-90 70q2 14 2 42t-2 42z"></path>
		</symbol>
		<symbol id="icon-expand_more" viewBox="0 0 1024 1024">
			<title>expand_more</title>
			<path class="path1" d="M708 366l60 60-256 256-256-256 60-60 196 196z"></path>
		</symbol>
		<symbol id="icon-expand_less" viewBox="0 0 1024 1024">
			<title>expand_less</title>
			<path class="path1" d="M512 342l256 256-60 60-196-196-196 196-60-60z"></path>
		</symbol>
		<symbol id="icon-delete" viewBox="0 0 1024 1024">
			<title>delete</title>
			<path class="path1" d="M810 170v86h-596v-86h148l44-42h212l44 42h148zM256 810v-512h512v512q0 34-26 60t-60 26h-340q-34 0-60-26t-26-60z"></path>
		</symbol>
		<symbol id="icon-today" viewBox="0 0 1024 1024">
			<title>today</title>
			<path class="path1" d="M298 426h214v214h-214v-214zM810 810v-468h-596v468h596zM810 128q34 0 60 26t26 60v596q0 34-26 60t-60 26h-596q-36 0-61-26t-25-60v-596q0-34 25-60t61-26h42v-86h86v86h340v-86h86v86h42z"></path>
		</symbol>
		<symbol id="icon-edit-spl" viewBox="0 0 1024 1024">
			<title>edit-spl</title>
			<path class="path1" d="M884 300l-78 78-160-160 78-78q12-12 30-12t30 12l100 100q12 12 12 30t-12 30zM128 736l472-472 160 160-472 472h-160v-160z"></path>
		</symbol>
		<symbol id="icon-keyboard_arrow_left" viewBox="0 0 1024 1024">
			<title>keyboard_arrow_left</title>
			<path class="path1" d="M658 686l-60 60-256-256 256-256 60 60-196 196z"></path>
		</symbol>
		<symbol id="icon-keyboard_arrow_right" viewBox="0 0 1024 1024">
			<title>keyboard_arrow_right</title>
			<path class="path1" d="M366 698l196-196-196-196 60-60 256 256-256 256z"></path>
		</symbol>
		<symbol id="icon-refresh" viewBox="0 0 1024 1024">
			<title>refresh</title>
			<path class="path1" d="M754 270l100-100v300h-300l138-138q-76-76-180-76-106 0-181 75t-75 181 75 181 181 75q84 0 150-47t92-123h88q-28 112-120 184t-210 72q-140 0-240-100t-100-242 100-242 240-100q142 0 242 100z"></path>
		</symbol>
		<symbol id="icon-info" viewBox="0 0 1024 1024">
			<title>info</title>
			<path class="path1" d="M554 384v-86h-84v86h84zM554 726v-256h-84v256h84zM512 86q176 0 301 125t125 301-125 301-301 125-301-125-125-301 125-301 301-125z"></path>
		</symbol>
		<symbol id="icon-more" viewBox="0 0 1024 1024">
			<title>more</title>
			<path class="path1" d="M810 576q26 0 45-18t19-46-19-46-45-18-45 18-19 46 19 46 45 18zM598 576q26 0 45-18t19-46-19-46-45-18-45 18-19 46 19 46 45 18zM384 576q28 0 46-18t18-46-18-46-46-18-46 18-18 46 18 46 46 18zM938 128q34 0 60 26t26 60v596q0 34-26 60t-60 26h-636q-44 0-72-38l-230-346 230-346q28-38 68-38h640z"></path>
		</symbol>
		<symbol id="icon-photo_size_select_actual" viewBox="0 0 1024 1024">
			<title>photo_size_select_actual</title>
			<path class="path1" d="M214 726h596l-192-256-148 192-108-128zM896 128q32 0 59 27t27 59v596q0 32-27 59t-59 27h-768q-34 0-60-26t-26-60v-596q0-32 27-59t59-27h768z"></path>
		</symbol>
		<symbol id="icon-favorite" viewBox="0 0 1024 1024">
			<title>favorite</title>
			<path class="path1" d="M512 910l-62-56q-106-96-154-142t-107-114-81-123-22-113q0-98 67-166t167-68q116 0 192 90 76-90 192-90 100 0 167 68t67 166q0 78-52 162t-113 146-199 186z"></path>
		</symbol>
		<symbol id="icon-camera_alt" viewBox="0 0 1024 1024">
			<title>camera_alt</title>
			<path class="path1" d="M512 726q88 0 151-63t63-151-63-151-151-63-151 63-63 151 63 151 151 63zM384 86h256l78 84h136q34 0 59 26t25 60v512q0 34-25 60t-59 26h-684q-34 0-59-26t-25-60v-512q0-34 25-60t59-26h136zM376 512q0-56 40-96t96-40 96 40 40 96-40 96-96 40-96-40-40-96z"></path>
		</symbol>
		<symbol id="icon-ondemand_video" viewBox="0 0 1024 1024">
			<title>ondemand_video</title>
			<path class="path1" d="M682 470l-298 170v-342zM896 726v-512h-768v512h768zM896 128q34 0 60 25t26 61l-2 512q0 34-25 59t-59 25h-214v86h-340v-86h-214q-36 0-61-25t-25-59v-512q0-36 25-61t61-25h768z"></path>
		</symbol>
		<symbol id="icon-map" viewBox="0 0 1024 1024">
			<title>map</title>
			<path class="path1" d="M640 810v-506l-256-90v506zM874 128q22 0 22 22v644q0 16-16 20l-240 82-256-90-228 88-6 2q-22 0-22-22v-644q0-16 16-20l240-82 256 90 228-88z"></path>
		</symbol>
		<symbol id="icon-place" viewBox="0 0 1024 1024">
			<title>place</title>
			<path class="path1" d="M512 490q44 0 75-31t31-75-31-75-75-31-75 31-31 75 31 75 75 31zM512 86q124 0 211 87t87 211q0 62-31 142t-75 150-87 131-73 97l-32 34q-12-14-32-37t-72-92-91-134-71-147-32-144q0-124 87-211t211-87z"></path>
		</symbol>
		<symbol id="icon-star" viewBox="0 0 1024 1024">
			<title>star</title>
			<path class="path1" d="M512 736l-264 160 70-300-232-202 306-26 120-282 120 282 306 26-232 202 70 300z"></path>
		</symbol>
		<symbol id="icon-star_half" viewBox="0 0 1024 1024">
			<title>star_half</title>
			<path class="path1" d="M512 678l160 98-42-182 142-124-188-16-72-172v396zM938 416l-232 202 70 300-264-160-264 160 70-300-232-202 306-26 120-284 120 284z"></path>
		</symbol>
		<symbol id="icon-star_outline" viewBox="0 0 1024 1024">
			<title>star_outline</title>
			<path class="path1" d="M512 658l160 96-42-182 142-124-188-16-72-172-72 172-188 16 142 124-42 182zM938 394l-232 202 70 300-264-160-264 160 70-300-232-202 306-26 120-282 120 282z"></path>
		</symbol>
		<symbol id="icon-directions" viewBox="0 0 1024 1024">
			<title>directions</title>
			<path class="path1" d="M598 618l148-148-148-150v106h-214q-18 0-30 13t-12 31v170h84v-128h172v106zM926 482q28 32 0 60l-384 384q-12 12-30 12t-30-12l-384-384q-12-12-12-30t12-30l384-384q12-12 30-12t30 12z"></path>
		</symbol>
		<symbol id="icon-volume-low" viewBox="0 0 1024 1024">
			<title>volume-low</title>
			<path class="path1" d="M549.020 741.020c-12.286 0-24.566-4.686-33.942-14.058-18.746-18.746-18.746-49.134 0-67.88 81.1-81.1 81.1-213.058 0-294.156-18.746-18.746-18.746-49.138 0-67.882s49.136-18.744 67.882 0c118.53 118.53 118.53 311.392 0 429.922-9.372 9.368-21.656 14.054-33.94 14.054z"></path>
			<path class="path2" d="M416.006 960c-8.328 0-16.512-3.25-22.634-9.374l-246.626-246.626h-114.746c-17.672 0-32-14.326-32-32v-320c0-17.672 14.328-32 32-32h114.746l246.626-246.628c9.154-9.154 22.916-11.89 34.874-6.936 11.958 4.952 19.754 16.622 19.754 29.564v832c0 12.944-7.796 24.612-19.754 29.564-3.958 1.64-8.118 2.436-12.24 2.436z"></path>
		</symbol>
		<symbol id="icon-my_location" viewBox="0 0 1024 1024">
			<title>my_location</title>
			<path class="path1" d="M512 810q124 0 211-87t87-211-87-211-211-87-211 87-87 211 87 211 211 87zM894 470h88v84h-88q-14 134-110 230t-230 110v88h-84v-88q-134-14-230-110t-110-230h-88v-84h88q14-134 110-230t230-110v-88h84v88q134 14 230 110t110 230zM512 342q70 0 120 50t50 120-50 120-120 50-120-50-50-120 50-120 120-50z"></path>
		</symbol>
		<symbol id="icon-location_disabled" viewBox="0 0 1024 1024">
			<title>location_disabled</title>
			<path class="path1" d="M694 748l-418-418q-62 82-62 182 0 124 87 211t211 87q100 0 182-62zM128 182l54-54 714 714-54 54-88-88q-90 74-200 86v88h-84v-88q-134-14-230-110t-110-230h-88v-84h88q12-110 86-200zM894 470h88v84h-88q-10 78-42 136l-64-64q22-54 22-114 0-124-87-211t-211-87q-60 0-114 22l-64-64q62-32 136-42v-88h84v88q134 14 230 110t110 230z"></path>
		</symbol>
		<symbol id="icon-check" viewBox="0 0 1024 1024">
			<title>check</title>
			<path class="path1" d="M384 690l452-452 60 60-512 512-238-238 60-60z"></path>
		</symbol>
		<symbol id="icon-check_circle" viewBox="0 0 1024 1024">
			<title>check_circle</title>
			<path class="path1" d="M426 726l384-384-60-62-324 324-152-152-60 60zM512 86q176 0 301 125t125 301-125 301-301 125-301-125-125-301 125-301 301-125z"></path>
		</symbol>
		<symbol id="icon-av_timer" viewBox="0 0 1024 1024">
			<title>av_timer</title>
			<path class="path1" d="M256 512q0-18 12-30t30-12 31 12 13 30-13 30-31 12-30-12-12-30zM768 512q0 18-12 30t-30 12-31-12-13-30 13-30 31-12 30 12 12 30zM470 128h42q160 0 272 112t112 272-112 272-272 112-272-112-112-272q0-192 154-306v-2l290 290-60 60-232-230q-66 82-66 188 0 124 87 211t211 87 211-87 87-211q0-112-74-196t-182-100v82h-84v-170zM470 726q0-18 12-31t30-13 30 13 12 31-12 30-30 12-30-12-12-30z"></path>
		</symbol>
		<symbol id="icon-content_copy" viewBox="0 0 1024 1024">
			<title>content_copy</title>
			<path class="path1" d="M810 896v-598h-468v598h468zM810 214q34 0 60 25t26 59v598q0 34-26 60t-60 26h-468q-34 0-60-26t-26-60v-598q0-34 26-59t60-25h468zM682 42v86h-512v598h-84v-598q0-34 25-60t59-26h512z"></path>
		</symbol>
		<symbol id="icon-lock" viewBox="0 0 1024 1024">
			<title>lock</title>
			<path class="path1" d="M644 342v-86q0-54-39-93t-93-39-93 39-39 93v86h264zM512 726q34 0 60-26t26-60-26-60-60-26-60 26-26 60 26 60 60 26zM768 342q34 0 60 25t26 59v428q0 34-26 59t-60 25h-512q-34 0-60-25t-26-59v-428q0-34 26-59t60-25h42v-86q0-88 63-151t151-63 151 63 63 151v86h42z"></path>
		</symbol>
		<symbol id="icon-add" viewBox="0 0 1024 1024">
			<title>add</title>
			<path class="path1" d="M810 554h-256v256h-84v-256h-256v-84h256v-256h84v256h256v84z"></path>
		</symbol>
		<symbol id="icon-not_interested" viewBox="0 0 1024 1024">
			<title>not_interested</title>
			<path class="path1" d="M782 722q72-90 72-210 0-140-101-241t-241-101q-120 0-210 72zM512 854q120 0 210-72l-480-480q-72 90-72 210 0 140 101 241t241 101zM512 86q176 0 301 125t125 301-125 301-301 125-301-125-125-301 125-301 301-125z"></path>
		</symbol>
		<symbol id="icon-warning" viewBox="0 0 1024 1024">
			<title>warning</title>
			<path class="path1" d="M554 598v-172h-84v172h84zM554 768v-86h-84v86h84zM42 896l470-810 470 810h-940z"></path>
		</symbol>
		<symbol id="icon-vertical_align_top" viewBox="0 0 1024 1024">
			<title>vertical_align_top</title>
			<path class="path1" d="M170 128h684v86h-684v-86zM342 470l170-172 170 172h-128v426h-84v-426h-128z"></path>
		</symbol>
		<symbol id="icon-rotate_left" viewBox="0 0 1024 1024">
			<title>rotate_left</title>
			<path class="path1" d="M554 174q126 16 213 112t87 226-87 226-213 112v-86q92-16 153-87t61-165-61-165-153-87v166l-194-190 194-194v132zM302 782l62-62q46 34 106 44v86q-96-12-168-68zM260 554q10 58 42 106l-60 60q-56-74-68-166h86zM304 364q-36 52-44 106h-86q12-90 70-166z"></path>
		</symbol>
		<symbol id="icon-rotate_right" viewBox="0 0 1024 1024">
			<title>rotate_right</title>
			<path class="path1" d="M720 660q34-46 44-106h86q-12 92-68 166zM554 764q60-10 106-44l62 62q-72 56-168 68v-86zM850 470h-86q-10-60-44-106l62-60q56 74 68 166zM664 236l-194 190v-166q-92 16-153 87t-61 165 61 165 153 87v86q-126-16-213-112t-87-226 87-226 213-112v-132z"></path>
		</symbol>
		<symbol id="icon-pin_drop" viewBox="0 0 1024 1024">
			<title>pin_drop</title>
			<path class="path1" d="M214 854h596v84h-596v-84zM426 342q0 34 26 59t60 25q36 0 61-25t25-59-26-60-60-26-60 26-26 60zM768 342q0 86-64 203t-128 191l-64 74q-28-30-71-82t-114-176-71-210q0-106 75-181t181-75 181 75 75 181z"></path>
		</symbol>
		<symbol id="icon-translate" viewBox="0 0 1024 1024">
			<title>translate</title>
			<path class="path1" d="M678 726h138l-70-186zM790 426l192 512h-86l-48-128h-202l-48 128h-86l192-512h86zM550 642l-34 88-132-132-214 212-60-60 218-214q-80-88-128-194h86q42 80 98 142 92-102 136-228h-478v-86h300v-84h84v84h300v86h-126q-52 160-158 278l-2 2z"></path>
		</symbol>
		<symbol id="icon-business" viewBox="0 0 1024 1024">
			<title>business</title>
			<path class="path1" d="M768 640v86h-86v-86h86zM768 470v84h-86v-84h86zM854 810v-426h-342v86h86v84h-86v86h86v86h-86v84h342zM426 298v-84h-84v84h84zM426 470v-86h-84v86h84zM426 640v-86h-84v86h84zM426 810v-84h-84v84h84zM256 298v-84h-86v84h86zM256 470v-86h-86v86h86zM256 640v-86h-86v86h86zM256 810v-84h-86v84h86zM512 298h426v598h-852v-768h426v170z"></path>
		</symbol>
		<symbol id="icon-call" viewBox="0 0 1024 1024">
			<title>call</title>
			<path class="path1" d="M282 460q96 186 282 282l94-94q20-20 44-10 72 24 152 24 18 0 30 12t12 30v150q0 18-12 30t-30 12q-300 0-513-213t-213-513q0-18 12-30t30-12h150q18 0 30 12t12 30q0 80 24 152 8 26-10 44z"></path>
		</symbol>
		<symbol id="icon-email" viewBox="0 0 1024 1024">
			<title>email</title>
			<path class="path1" d="M854 342v-86l-342 214-342-214v86l342 212zM854 170q34 0 59 26t25 60v512q0 34-25 60t-59 26h-684q-34 0-59-26t-25-60v-512q0-34 25-60t59-26h684z"></path>
		</symbol>
		<symbol id="icon-add_circle" viewBox="0 0 1024 1024">
			<title>add_circle</title>
			<path class="path1" d="M726 554v-84h-172v-172h-84v172h-172v84h172v172h84v-172h172zM512 86q176 0 301 125t125 301-125 301-301 125-301-125-125-301 125-301 301-125z"></path>
		</symbol>
		<symbol id="icon-cancel" viewBox="0 0 1024 1024">
			<title>cancel</title>
			<path class="path1" d="M726 666l-154-154 154-154-60-60-154 154-154-154-60 60 154 154-154 154 60 60 154-154 154 154zM512 86q176 0 301 125t125 301-125 301-301 125-301-125-125-301 125-301 301-125z"></path>
		</symbol>
		<symbol id="icon-shopping_cart" viewBox="0 0 1024 1024">
			<title>shopping_cart</title>
			<path class="path1" d="M726 768q34 0 59 26t25 60-25 59-59 25-60-25-26-59 26-60 60-26zM42 86h140l40 84h632q18 0 30 13t12 31q0 10-6 20l-152 276q-24 44-74 44h-318l-38 70-2 6q0 10 10 10h494v86h-512q-34 0-59-26t-25-60q0-20 10-40l58-106-154-324h-86v-84zM298 768q34 0 60 26t26 60-26 59-60 25-59-25-25-59 25-60 59-26z"></path>
		</symbol>		
	</defs>	
</svg>