<?xml version="1.0" encoding="UTF-8" standalone="no"?>
<svg
   xmlns:dc="http://purl.org/dc/elements/1.1/"
   xmlns:cc="http://creativecommons.org/ns#"
   xmlns:rdf="http://www.w3.org/1999/02/22-rdf-syntax-ns#"
   xmlns:svg="http://www.w3.org/2000/svg"
   xmlns="http://www.w3.org/2000/svg"
   version="1.1"
   id="svg6053"
   viewBox="0 0 28.256808 30.006534"
   height="8.4685106mm"
   width="7.974699mm">
  <defs
     id="defs6055" />
  <metadata
     id="metadata6058">
    <rdf:RDF>
      <cc:Work
         rdf:about="">
        <dc:format>image/svg+xml</dc:format>
        <dc:type
           rdf:resource="http://purl.org/dc/dcmitype/StillImage" />
        <dc:title></dc:title>
      </cc:Work>
    </rdf:RDF>
  </metadata>
  <g
     transform="translate(-371.58588,-457.35894)"
     id="layer1">
    <g
       transform="translate(-205.0641,-396.19371)"
       id="g5613">
      <path
         id="path5617"
         d="m 599.14331,877.60826 c -0.97748,-1.17779 -0.42271,-2.08792 0.9513,-1.56066 1.63782,0.62849 3.6683,-5.21001 3.26642,-9.39241 -1.19819,-12.46986 -17.21586,-16.00207 -23.7751,-5.24288 -2.609,4.27956 -1.68764,12.50452 1.59771,14.26278 1.02093,0.54639 1.25669,1.04859 0.73646,1.56882 -3.08182,3.08182 -6.81852,-9.04114 -4.59816,-14.91781 5.19642,-13.75344 26.10779,-10.56679 27.52618,4.19468 0.58889,6.12871 -3.39472,13.87097 -5.70481,11.08748 z"
         style="fill:#bf0000" />
      <path
         id="path5615"
         d="m 587.02423,879.19409 c -5.45803,-7.38221 -6.20455,-8.81239 -6.20455,-11.88677 0,-9.65445 13.19054,-13.26667 18.23491,-4.99363 2.67308,4.38399 2.03525,8.74424 -1.96053,13.40235 -1.88659,2.19931 -3.98436,4.92687 -4.6617,6.06124 -1.59783,2.67594 -1.47719,2.73357 -5.40813,-2.58319 z m 8.76416,-6.73505 c 2.48433,-2.3339 2.43028,-7.493 -0.10507,-10.02835 -4.28149,-4.28149 -11.65909,-1.08885 -11.65909,5.04545 0,5.92037 7.42058,9.06348 11.76416,4.9829 z"
         style="fill:#16365d" />
    </g>
  </g>
</svg>
