<?xml version="1.0" encoding="utf-8"?>
<!-- Generator: Adobe Illustrator 16.0.0, SVG Export Plug-In . SVG Version: 6.00 Build 0)  -->
<!DOCTYPE svg PUBLIC "-//W3C//DTD SVG 1.1//EN" "http://www.w3.org/Graphics/SVG/1.1/DTD/svg11.dtd">
<svg version="1.1" id="Layer_1" xmlns="http://www.w3.org/2000/svg" xmlns:xlink="http://www.w3.org/1999/xlink" x="0px" y="0px"
	 width="85px" height="19px" viewBox="0 0 85 19" enable-background="new 0 0 85 19" xml:space="preserve">
<rect fill="#FFFFFF" width="85" height="19"/>
<rect x="-0.5" y="0.5" fill="none" stroke="#D2CECE" stroke-miterlimit="10" width="85" height="19"/>
<g>
	<path d="M11.517,5.957l0.09,1.073c0.26-0.39,0.586-0.692,0.98-0.904c0.393-0.212,0.847-0.319,1.362-0.319
		c0.521,0,0.966,0.115,1.336,0.346c0.37,0.23,0.651,0.578,0.841,1.043c0.25-0.434,0.575-0.775,0.976-1.02
		c0.4-0.246,0.871-0.369,1.412-0.369c0.8,0,1.433,0.284,1.896,0.852c0.462,0.568,0.694,1.436,0.694,2.602v4.819h-2.192V9.252
		c0-0.65-0.1-1.104-0.3-1.359c-0.2-0.255-0.498-0.383-0.893-0.383c-0.311,0-0.579,0.069-0.807,0.207
		c-0.228,0.137-0.409,0.33-0.544,0.574c0,0.096,0.002,0.176,0.007,0.244c0.006,0.066,0.008,0.137,0.008,0.207v5.337h-2.185V9.252
		c0-0.635-0.1-1.085-0.3-1.347c-0.2-0.263-0.5-0.395-0.901-0.395c-0.295,0-0.554,0.056-0.777,0.168
		c-0.223,0.113-0.407,0.271-0.552,0.478v5.923H9.482V5.957H11.517z"/>
	<path d="M25.713,10.671l0.09,0.45h0.045l1.554-5.165h2.357l-3.295,9.338c-0.231,0.58-0.543,1.07-0.939,1.468
		c-0.395,0.399-0.988,0.597-1.779,0.597c-0.185,0-0.356-0.015-0.514-0.045c-0.157-0.029-0.349-0.073-0.575-0.127l0.255-1.599
		c0.065,0.009,0.135,0.02,0.21,0.029c0.075,0.011,0.143,0.015,0.203,0.015c0.361,0,0.638-0.089,0.833-0.268
		c0.195-0.176,0.345-0.396,0.45-0.663l0.255-0.63l-2.882-8.116h2.357L25.713,10.671z"/>
	<path fill="#A31F1F" d="M34.062,14.237c-1.211,0-2.158-0.372-2.838-1.115c-0.681-0.744-1.021-1.7-1.021-2.872v-0.3
		c0-1.216,0.331-2.212,0.991-2.988c0.661-0.776,1.569-1.161,2.726-1.157c1.09,0,1.927,0.335,2.511,1.002
		c0.582,0.668,0.874,1.569,0.874,2.7v1.134h-4.843l-0.021,0.044c0.034,0.555,0.204,1.007,0.506,1.352
		c0.303,0.347,0.751,0.519,1.348,0.519c0.49,0,0.907-0.051,1.25-0.15c0.344-0.1,0.697-0.252,1.063-0.457l0.593,1.35
		c-0.325,0.267-0.766,0.489-1.321,0.669C35.322,14.146,34.717,14.237,34.062,14.237z M33.919,7.495c-0.441,0-0.78,0.152-1.018,0.455
		c-0.237,0.303-0.381,0.705-0.432,1.205l0.016,0.038h2.672V9.027c0-0.477-0.097-0.851-0.292-1.123
		C34.669,7.632,34.354,7.495,33.919,7.495z"/>
	<path fill="#A31F1F" d="M41.028,12.397h4.023v1.682h-6.749v-1.291l3.866-5.135h-3.746V5.957h6.501V7.21L41.028,12.397z"/>
	<path d="M53.76,10.243c0,1.2-0.277,2.166-0.832,2.896c-0.557,0.731-1.332,1.098-2.328,1.098c-0.426,0-0.803-0.08-1.135-0.237
		c-0.33-0.156-0.613-0.389-0.848-0.693v3.895h-2.186V5.957h1.975l0.129,0.96c0.24-0.355,0.529-0.629,0.867-0.822
		s0.732-0.29,1.184-0.29c1.004,0,1.785,0.393,2.342,1.178c0.555,0.787,0.832,1.82,0.832,3.101V10.243z M51.566,10.085
		c0-0.766-0.127-1.386-0.381-1.862C50.93,7.748,50.539,7.51,50.014,7.51c-0.33,0-0.611,0.068-0.844,0.203
		c-0.234,0.134-0.418,0.328-0.553,0.578v3.558c0.135,0.231,0.318,0.406,0.553,0.525c0.232,0.122,0.52,0.182,0.859,0.182
		c0.529,0,0.92-0.209,1.168-0.624c0.246-0.415,0.369-0.978,0.369-1.688V10.085z"/>
	<path d="M57.416,14.079h-2.193V2.368h2.193V14.079z"/>
	<path d="M64.008,14.079c-0.08-0.185-0.15-0.381-0.207-0.586c-0.057-0.206-0.1-0.415-0.123-0.631
		c-0.225,0.396-0.523,0.724-0.895,0.985c-0.369,0.259-0.811,0.39-1.32,0.39c-0.852,0-1.508-0.22-1.967-0.656
		c-0.461-0.439-0.691-1.036-0.691-1.791c0-0.796,0.307-1.413,0.92-1.851c0.613-0.438,1.508-0.656,2.684-0.656h1.23V8.636
		c0-0.39-0.102-0.692-0.307-0.908c-0.207-0.215-0.512-0.323-0.916-0.323c-0.355,0-0.629,0.087-0.822,0.26
		c-0.191,0.172-0.289,0.409-0.289,0.708h-2.109L59.18,8.328c-0.033-0.686,0.264-1.277,0.898-1.775
		c0.633-0.498,1.459-0.748,2.48-0.748c0.975,0,1.766,0.246,2.369,0.737c0.604,0.49,0.904,1.193,0.904,2.109v3.354
		c0,0.381,0.029,0.738,0.086,1.074s0.148,0.669,0.275,0.999H64.008z M62.002,12.615c0.381,0,0.723-0.096,1.021-0.286
		c0.301-0.188,0.506-0.41,0.615-0.66v-1.148h-1.23c-0.467,0-0.816,0.114-1.055,0.347c-0.238,0.229-0.355,0.511-0.355,0.847
		c0,0.275,0.088,0.495,0.266,0.658C61.441,12.534,61.688,12.615,62.002,12.615z"/>
	<path d="M69.48,5.957l0.098,1.164c0.27-0.417,0.604-0.738,0.998-0.969s0.838-0.346,1.328-0.346c0.822,0,1.463,0.264,1.924,0.792
		c0.459,0.529,0.689,1.363,0.689,2.504v4.978h-2.199v-4.97c0-0.58-0.102-0.992-0.305-1.234c-0.201-0.243-0.506-0.365-0.912-0.365
		c-0.326,0-0.611,0.062-0.859,0.184s-0.451,0.291-0.611,0.507v5.878h-2.193V5.957H69.48z"/>
</g>
</svg>
